<?xml version="1.0" encoding="UTF-8"?>
<svg xmlns="http://www.w3.org/2000/svg" width="500" height="226" font-family="Fira Code, Courier New, monospace">
  <rect width="100%" height="100%" fill="#0d1117" />
  <g fill="#FFF" font-size="14">
    <text x="0" y="22" font-weight="700">From: 09 December 2025 - To: 11 December 2025</text>
    <text x="0" y="44">Total Time: 1 hr 37 mins</text>
  </g>
  <rect x="180" y="66" width="270" height="14" fill="#0d1117" rx="3" ry="3"/>
  <text x="0" y="76" font-size="14" fill="#FFF">HTML              </text>
  <text x="120" y="76" font-size="14" fill="#FFF">58 mins</text>
  <text x="186" y="76" font-size="14" fill="#FFF">█████████████████░░░░░░░░░░░</text>
  <text x="456" y="76" font-size="14" fill="#FFF">59.93 %</text>
  <rect x="180" y="100" width="270" height="14" fill="#0d1117" rx="3" ry="3"/>
  <text x="0" y="110" font-size="14" fill="#FFF">CSS               </text>
  <text x="120" y="110" font-size="14" fill="#FFF">27 mins</text>
  <text x="186" y="110" font-size="14" fill="#FFF">████████░░░░░░░░░░░░░░░░░░░░</text>
  <text x="456" y="110" font-size="14" fill="#FFF">28.44 %</text>
  <rect x="180" y="134" width="270" height="14" fill="#0d1117" rx="3" ry="3"/>
  <text x="0" y="144" font-size="14" fill="#FFF">JavaScript        </text>
  <text x="120" y="144" font-size="14" fill="#FFF">11 mins</text>
  <text x="186" y="144" font-size="14" fill="#FFF">███░░░░░░░░░░░░░░░░░░░░░░░░░</text>
  <text x="456" y="144" font-size="14" fill="#FFF">11.51 %</text>
  <rect x="180" y="168" width="270" height="14" fill="#0d1117" rx="3" ry="3"/>
  <text x="0" y="178" font-size="14" fill="#FFF">Markdown          </text>
  <text x="120" y="178" font-size="14" fill="#FFF">0 secs</text>
  <text x="186" y="178" font-size="14" fill="#FFF">░░░░░░░░░░░░░░░░░░░░░░░░░░░░</text>
  <text x="456" y="178" font-size="14" fill="#FFF">0.13 %</text>
</svg>
