<?xml version="1.0" encoding="UTF-8"?>
<svg xmlns="http://www.w3.org/2000/svg" width="500" height="260" font-family="Fira Code, Courier New, monospace">
  <rect width="100%" height="100%" fill="#0d1117" />
  <g fill="#FFF" font-size="14">
    <text x="0" y="22" font-weight="700">From: 09 December 2025 - To: 04 April 2026</text>
    <text x="0" y="44">Total Time: 232 hrs 7 mins</text>
  </g>
  <rect x="180" y="66" width="270" height="14" fill="#0d1117" rx="3" ry="3"/>
  <text x="0" y="76" font-size="14" fill="#FFF">JavaScript        </text>
  <text x="120" y="76" font-size="14" fill="#FFF">148 hrs 58 mins</text>
  <text x="186" y="76" font-size="14" fill="#FFF">██████████████████░░░░░░░░░░</text>
  <text x="456" y="76" font-size="14" fill="#FFF">64.60 %</text>
  <rect x="180" y="100" width="270" height="14" fill="#0d1117" rx="3" ry="3"/>
  <text x="0" y="110" font-size="14" fill="#FFF">CSS               </text>
  <text x="120" y="110" font-size="14" fill="#FFF">36 hrs 39 mins</text>
  <text x="186" y="110" font-size="14" fill="#FFF">████░░░░░░░░░░░░░░░░░░░░░░░░</text>
  <text x="456" y="110" font-size="14" fill="#FFF">15.90 %</text>
  <rect x="180" y="134" width="270" height="14" fill="#0d1117" rx="3" ry="3"/>
  <text x="0" y="144" font-size="14" fill="#FFF">HTML              </text>
  <text x="120" y="144" font-size="14" fill="#FFF">36 hrs 34 mins</text>
  <text x="186" y="144" font-size="14" fill="#FFF">████░░░░░░░░░░░░░░░░░░░░░░░░</text>
  <text x="456" y="144" font-size="14" fill="#FFF">15.86 %</text>
  <rect x="180" y="168" width="270" height="14" fill="#0d1117" rx="3" ry="3"/>
  <text x="0" y="178" font-size="14" fill="#FFF">Markdown          </text>
  <text x="120" y="178" font-size="14" fill="#FFF">6 hrs 42 mins</text>
  <text x="186" y="178" font-size="14" fill="#FFF">█░░░░░░░░░░░░░░░░░░░░░░░░░░░</text>
  <text x="456" y="178" font-size="14" fill="#FFF">2.91 %</text>
  <rect x="180" y="202" width="270" height="14" fill="#0d1117" rx="3" ry="3"/>
  <text x="0" y="212" font-size="14" fill="#FFF">TypeScript        </text>
  <text x="120" y="212" font-size="14" fill="#FFF">1 hr 40 mins</text>
  <text x="186" y="212" font-size="14" fill="#FFF">░░░░░░░░░░░░░░░░░░░░░░░░░░░░</text>
  <text x="456" y="212" font-size="14" fill="#FFF">0.73 %</text>
</svg>
